<svg width="255" height="57" viewBox="0 0 255 57" fill="none" xmlns="http://www.w3.org/2000/svg">
<path d="M71.244 33.5H67.072L63.124 26.696H60.184V33.5H56.32V13.9H64.16C65.9707 13.9 67.5107 14.5347 68.78 15.804C70.0493 17.0733 70.684 18.604 70.684 20.396C70.684 21.6093 70.3387 22.7387 69.648 23.784C68.9573 24.8107 68.0427 25.5853 66.904 26.108L71.244 33.5ZM64.16 17.512H60.184V23.308H64.16C64.888 23.308 65.5133 23.028 66.036 22.468C66.5587 21.8893 66.82 21.1987 66.82 20.396C66.82 19.5933 66.5587 18.912 66.036 18.352C65.5133 17.792 64.888 17.512 64.16 17.512ZM86.2483 27.984H75.6923C76.1589 29.7387 77.4749 30.616 79.6403 30.616C81.0216 30.616 82.0669 30.1493 82.7763 29.216L85.6883 30.896C84.3069 32.8933 82.2723 33.892 79.5843 33.892C77.2696 33.892 75.4123 33.192 74.0123 31.792C72.6123 30.392 71.9123 28.628 71.9123 26.5C71.9123 24.4093 72.6029 22.6547 73.9843 21.236C75.3469 19.8173 77.1203 19.108 79.3043 19.108C81.3763 19.108 83.0656 19.8173 84.3723 21.236C85.7163 22.6547 86.3883 24.4093 86.3883 26.5C86.3883 26.892 86.3416 27.3867 86.2483 27.984ZM75.6363 25.184H82.7763C82.5709 24.2693 82.1509 23.5693 81.5163 23.084C80.9003 22.5987 80.1629 22.356 79.3043 22.356C78.3336 22.356 77.5309 22.608 76.8963 23.112C76.2616 23.5973 75.8416 24.288 75.6363 25.184ZM104.394 19.108C105.999 19.108 107.278 19.6307 108.23 20.676C109.2 21.7213 109.686 23.1213 109.686 24.876V33.5H106.074V25.128C106.074 24.288 105.868 23.6347 105.458 23.168C105.047 22.7013 104.468 22.468 103.722 22.468C102.9 22.468 102.256 22.7387 101.79 23.28C101.342 23.8213 101.118 24.6053 101.118 25.632V33.5H97.5058V25.128C97.5058 24.288 97.3005 23.6347 96.8898 23.168C96.4791 22.7013 95.9005 22.468 95.1538 22.468C94.3511 22.468 93.7071 22.748 93.2218 23.308C92.7551 23.8493 92.5218 24.624 92.5218 25.632V33.5H88.9098V19.5H92.5218V20.984C93.3618 19.7333 94.6591 19.108 96.4138 19.108C98.1498 19.108 99.4191 19.78 100.222 21.124C101.136 19.78 102.527 19.108 104.394 19.108ZM116.366 19.5V21.908C116.683 21.0307 117.224 20.368 117.99 19.92C118.755 19.4533 119.632 19.22 120.622 19.22V23.252C119.52 23.1027 118.531 23.3267 117.654 23.924C116.795 24.5027 116.366 25.464 116.366 26.808V33.5H112.754V19.5H116.366ZM132.855 21.152V19.5H136.467V33.5H132.855V31.848C131.772 33.2107 130.251 33.892 128.291 33.892C126.424 33.892 124.819 33.1827 123.475 31.764C122.149 30.3267 121.486 28.572 121.486 26.5C121.486 24.4467 122.149 22.7013 123.475 21.264C124.819 19.8267 126.424 19.108 128.291 19.108C130.251 19.108 131.772 19.7893 132.855 21.152ZM126.191 29.356C126.919 30.084 127.843 30.448 128.963 30.448C130.083 30.448 131.007 30.084 131.735 29.356C132.481 28.6093 132.855 27.6573 132.855 26.5C132.855 25.3427 132.481 24.4 131.735 23.672C131.007 22.9253 130.083 22.552 128.963 22.552C127.843 22.552 126.919 22.9253 126.191 23.672C125.463 24.4 125.099 25.3427 125.099 26.5C125.099 27.6573 125.463 28.6093 126.191 29.356ZM147.75 19.5V22.972H144.586V28.796C144.586 29.2813 144.707 29.636 144.95 29.86C145.193 30.084 145.547 30.2147 146.014 30.252C146.481 30.2707 147.059 30.2613 147.75 30.224V33.5C145.305 33.78 143.559 33.556 142.514 32.828C141.487 32.0813 140.974 30.7373 140.974 28.796V22.972H138.538V19.5H140.974V16.672L144.586 15.58V19.5H147.75ZM152.089 17.82C151.491 17.82 150.969 17.6053 150.521 17.176C150.091 16.728 149.877 16.2053 149.877 15.608C149.877 15.0107 150.091 14.488 150.521 14.04C150.969 13.592 151.491 13.368 152.089 13.368C152.705 13.368 153.227 13.592 153.657 14.04C154.105 14.488 154.329 15.0107 154.329 15.608C154.329 16.2053 154.105 16.728 153.657 17.176C153.227 17.6053 152.705 17.82 152.089 17.82ZM153.909 33.5H150.297V19.5H153.909V33.5ZM164.999 19.108C166.548 19.108 167.808 19.6213 168.779 20.648C169.787 21.6933 170.291 23.112 170.291 24.904V33.5H166.679V25.352C166.679 24.4373 166.427 23.728 165.923 23.224C165.437 22.72 164.765 22.468 163.907 22.468C162.955 22.468 162.199 22.7667 161.639 23.364C161.097 23.9427 160.827 24.8013 160.827 25.94V33.5H157.215V19.5H160.827V21.068C161.685 19.7613 163.076 19.108 164.999 19.108ZM184.099 21.236V19.5H187.627V32.828C187.627 34.9747 186.908 36.6267 185.471 37.784C184.052 38.9227 182.335 39.492 180.319 39.492C177.145 39.492 174.933 38.3533 173.683 36.076L176.763 34.312C177.453 35.6187 178.676 36.272 180.431 36.272C181.569 36.272 182.465 35.9733 183.119 35.376C183.772 34.7787 184.099 33.9293 184.099 32.828V31.316C183.035 32.7347 181.541 33.444 179.619 33.444C177.64 33.444 175.979 32.7533 174.635 31.372C173.309 29.9533 172.647 28.2547 172.647 26.276C172.647 24.2973 173.319 22.608 174.663 21.208C176.007 19.808 177.659 19.108 179.619 19.108C181.541 19.108 183.035 19.8173 184.099 21.236ZM182.979 29.048C183.725 28.32 184.099 27.396 184.099 26.276C184.099 25.156 183.725 24.2507 182.979 23.56C182.251 22.832 181.317 22.468 180.179 22.468C179.059 22.468 178.116 22.832 177.351 23.56C176.623 24.2507 176.259 25.156 176.259 26.276C176.259 27.396 176.623 28.32 177.351 29.048C178.097 29.7573 179.04 30.112 180.179 30.112C181.317 30.112 182.251 29.7573 182.979 29.048ZM201.57 26.78H191.07V23.308H201.57V26.78ZM208.371 23.476C208.371 24.0733 209.22 24.5867 210.919 25.016C211.516 25.1467 212.057 25.3053 212.543 25.492C213.028 25.66 213.513 25.912 213.999 26.248C214.503 26.5653 214.895 26.9947 215.175 27.536C215.455 28.0773 215.595 28.7027 215.595 29.412C215.595 30.8493 215.053 31.96 213.971 32.744C212.888 33.5093 211.553 33.892 209.967 33.892C207.092 33.892 205.132 32.7813 204.087 30.56L207.223 28.796C207.652 30.0093 208.567 30.616 209.967 30.616C211.255 30.616 211.899 30.2147 211.899 29.412C211.899 28.8147 211.049 28.3013 209.351 27.872C208.716 27.704 208.175 27.536 207.727 27.368C207.279 27.2 206.793 26.9573 206.271 26.64C205.748 26.304 205.347 25.884 205.067 25.38C204.805 24.8573 204.675 24.2507 204.675 23.56C204.675 22.1787 205.179 21.096 206.187 20.312C207.213 19.5093 208.483 19.108 209.995 19.108C211.133 19.108 212.169 19.3693 213.103 19.892C214.036 20.396 214.773 21.124 215.315 22.076L212.235 23.756C211.787 22.804 211.04 22.328 209.995 22.328C209.528 22.328 209.136 22.44 208.819 22.664C208.52 22.8693 208.371 23.14 208.371 23.476ZM226.202 19.108C228.088 19.108 229.693 19.8267 231.018 21.264C232.362 22.7013 233.034 24.4467 233.034 26.5C233.034 28.5907 232.362 30.3453 231.018 31.764C229.712 33.1827 228.106 33.892 226.202 33.892C224.242 33.892 222.73 33.2107 221.666 31.848V39.1H218.054V19.5H221.666V21.152C222.73 19.7893 224.242 19.108 226.202 19.108ZM222.758 29.356C223.486 30.084 224.41 30.448 225.53 30.448C226.65 30.448 227.574 30.084 228.302 29.356C229.049 28.6093 229.422 27.6573 229.422 26.5C229.422 25.3427 229.049 24.4 228.302 23.672C227.574 22.9253 226.65 22.552 225.53 22.552C224.41 22.552 223.486 22.9253 222.758 23.672C222.03 24.4 221.666 25.3427 221.666 26.5C221.666 27.6573 222.03 28.6093 222.758 29.356ZM243.73 19.108C245.615 19.108 247.22 19.8267 248.546 21.264C249.89 22.7013 250.562 24.4467 250.562 26.5C250.562 28.5907 249.89 30.3453 248.546 31.764C247.239 33.1827 245.634 33.892 243.73 33.892C241.77 33.892 240.258 33.2107 239.194 31.848V33.5H235.582V13.9H239.194V21.152C240.258 19.7893 241.77 19.108 243.73 19.108ZM240.286 29.356C241.014 30.084 241.938 30.448 243.058 30.448C244.178 30.448 245.102 30.084 245.83 29.356C246.576 28.6093 246.95 27.6573 246.95 26.5C246.95 25.3427 246.576 24.4 245.83 23.672C245.102 22.9253 244.178 22.552 243.058 22.552C241.938 22.552 241.014 22.9253 240.286 23.672C239.558 24.4 239.194 25.3427 239.194 26.5C239.194 27.6573 239.558 28.6093 240.286 29.356Z" fill="#161616"/>
<g clip-path="url(#clip0)">
<path d="M7.82 38.8V25.97L30.29 9.56L36.48 14.09L42.69 9.56L30.29 0.5L0.5 22.25V38.8H7.82Z" fill="#4496F6"/>
<path d="M32.08 38.8V25.97L54.55 9.56H66.95L54.55 0.5L24.76 22.25V38.8H32.08Z" fill="#4496F6"/>
</g>
<path d="M1.38 45.8H4.13C4.81933 45.8 5.395 46.031 5.857 46.493C6.319 46.955 6.55 47.5307 6.55 48.22C6.55 48.9093 6.319 49.485 5.857 49.947C5.395 50.409 4.81933 50.64 4.13 50.64H2.15V53.5H1.38V45.8ZM2.15 49.914H4.13C4.60667 49.914 4.999 49.7563 5.307 49.441C5.62233 49.1257 5.78 48.7187 5.78 48.22C5.78 47.7287 5.62233 47.3253 5.307 47.01C4.999 46.6873 4.60667 46.526 4.13 46.526H2.15V49.914ZM9.85885 47.868C10.6802 47.868 11.3365 48.1577 11.8279 48.737C12.3339 49.309 12.5869 49.9873 12.5869 50.772C12.5869 50.8087 12.5795 50.9223 12.5649 51.113H7.73585C7.80918 51.663 8.04385 52.103 8.43985 52.433C8.83585 52.763 9.33085 52.928 9.92485 52.928C10.7609 52.928 11.3512 52.6163 11.6959 51.993L12.3339 52.367C12.0919 52.763 11.7582 53.0747 11.3329 53.302C10.9149 53.522 10.4419 53.632 9.91385 53.632C9.04852 53.632 8.34452 53.3607 7.80185 52.818C7.25918 52.2753 6.98785 51.586 6.98785 50.75C6.98785 49.9213 7.25552 49.2357 7.79085 48.693C8.32618 48.143 9.01552 47.868 9.85885 47.868ZM9.85885 48.572C9.28685 48.572 8.80652 48.7407 8.41785 49.078C8.03652 49.4153 7.80918 49.859 7.73585 50.409H11.8389C11.7582 49.8223 11.5345 49.3713 11.1679 49.056C10.7865 48.7333 10.3502 48.572 9.85885 48.572ZM17.4817 47.12H14.6217V46.482H17.4817V47.12ZM14.4677 52.235L17.7457 48H18.3617V53.5H17.6357V49.265L14.3577 53.5H13.7417V48H14.4677V52.235ZM19.237 48H23.857V48.704H21.91V53.5H21.184V48.704H19.237V48ZM25.4677 52.235L28.7457 48H29.3617V53.5H28.6357V49.265L25.3577 53.5H24.7417V48H25.4677V52.235ZM34.791 50.398V48H35.517V53.5H34.791V51.102H31.623V53.5H30.897V48H31.623V50.398H34.791ZM37.0522 48H40.5722V48.704H37.7782V53.5H37.0522V48ZM47.1545 47.868C47.9392 47.868 48.6065 48.1467 49.1565 48.704C49.7139 49.2613 49.9925 49.9433 49.9925 50.75C49.9925 51.5567 49.7139 52.2387 49.1565 52.796C48.6065 53.3533 47.9392 53.632 47.1545 53.632C46.1792 53.632 45.4385 53.2287 44.9325 52.422V55.7H44.2065V48H44.9325V49.078C45.4385 48.2713 46.1792 47.868 47.1545 47.868ZM45.5595 52.301C45.9775 52.719 46.4909 52.928 47.0995 52.928C47.7082 52.928 48.2215 52.719 48.6395 52.301C49.0575 51.8683 49.2665 51.3513 49.2665 50.75C49.2665 50.1413 49.0575 49.628 48.6395 49.21C48.2215 48.7847 47.7082 48.572 47.0995 48.572C46.4909 48.572 45.9775 48.7847 45.5595 49.21C45.1415 49.628 44.9325 50.1413 44.9325 50.75C44.9325 51.3513 45.1415 51.8683 45.5595 52.301ZM53.7407 47.868C54.562 47.868 55.2184 48.1577 55.7097 48.737C56.2157 49.309 56.4687 49.9873 56.4687 50.772C56.4687 50.8087 56.4614 50.9223 56.4467 51.113H51.6177C51.691 51.663 51.9257 52.103 52.3217 52.433C52.7177 52.763 53.2127 52.928 53.8067 52.928C54.6427 52.928 55.233 52.6163 55.5777 51.993L56.2157 52.367C55.9737 52.763 55.64 53.0747 55.2147 53.302C54.7967 53.522 54.3237 53.632 53.7957 53.632C52.9304 53.632 52.2264 53.3607 51.6837 52.818C51.141 52.2753 50.8697 51.586 50.8697 50.75C50.8697 49.9213 51.1374 49.2357 51.6727 48.693C52.208 48.143 52.8974 47.868 53.7407 47.868ZM53.7407 48.572C53.1687 48.572 52.6884 48.7407 52.2997 49.078C51.9184 49.4153 51.691 49.859 51.6177 50.409H55.7207C55.64 49.8223 55.4164 49.3713 55.0497 49.056C54.6684 48.7333 54.232 48.572 53.7407 48.572ZM62.1775 48H63.0135V53.5H62.2875V49.111L60.3625 52.235H60.2745L58.3495 49.111V53.5H57.6235V48H58.4595L60.3185 51.014L62.1775 48ZM69.1612 52.807C68.5966 53.357 67.9146 53.632 67.1152 53.632C66.3012 53.632 65.6156 53.357 65.0582 52.807C64.5009 52.2497 64.2222 51.564 64.2222 50.75C64.2222 49.936 64.5009 49.254 65.0582 48.704C65.6156 48.1467 66.3012 47.868 67.1152 47.868C67.9219 47.868 68.6039 48.1467 69.1612 48.704C69.7259 49.254 70.0082 49.936 70.0082 50.75C70.0082 51.5567 69.7259 52.2423 69.1612 52.807ZM65.5752 52.301C65.9932 52.719 66.5066 52.928 67.1152 52.928C67.7239 52.928 68.2372 52.719 68.6552 52.301C69.0732 51.8683 69.2822 51.3513 69.2822 50.75C69.2822 50.1413 69.0732 49.628 68.6552 49.21C68.2372 48.7847 67.7239 48.572 67.1152 48.572C66.5066 48.572 65.9932 48.7847 65.5752 49.21C65.1572 49.628 64.9482 50.1413 64.9482 50.75C64.9482 51.3513 65.1572 51.8683 65.5752 52.301ZM75.1171 50.398V48H75.8431V53.5H75.1171V51.102H71.9491V53.5H71.2231V48H71.9491V50.398H75.1171ZM76.7184 48H81.3384V48.704H79.3914V53.5H78.6654V48.704H76.7184V48ZM86.1171 50.398V48H86.8431V53.5H86.1171V51.102H82.9491V53.5H82.2231V48H82.9491V50.398H86.1171ZM89.1044 50.09H90.6114C91.1174 50.09 91.5501 50.2513 91.9094 50.574C92.2687 50.8893 92.4484 51.2963 92.4484 51.795C92.4484 52.301 92.2687 52.7117 91.9094 53.027C91.5647 53.3423 91.1321 53.5 90.6114 53.5H88.3784V48H89.1044V50.09ZM93.2184 53.5V48H93.9444V53.5H93.2184ZM89.1044 52.796H90.6114C90.9267 52.796 91.1907 52.7043 91.4034 52.521C91.6161 52.3303 91.7224 52.0883 91.7224 51.795C91.7224 51.5017 91.6161 51.2633 91.4034 51.08C91.1907 50.8893 90.9267 50.794 90.6114 50.794H89.1044V52.796ZM97.9647 50.651L100.11 53.5H99.2407L97.5247 51.234L95.8087 53.5H94.9397L97.0957 50.651L95.0827 48H95.9517L97.5247 50.079L99.0977 48H99.9667L97.9647 50.651ZM105.343 50.64L108.291 53.5H107.323L104.573 50.849V53.5H103.847V48H104.573V50.431L107.191 48H108.181L105.343 50.64ZM113.344 52.807C112.779 53.357 112.097 53.632 111.298 53.632C110.484 53.632 109.798 53.357 109.241 52.807C108.684 52.2497 108.405 51.564 108.405 50.75C108.405 49.936 108.684 49.254 109.241 48.704C109.798 48.1467 110.484 47.868 111.298 47.868C112.105 47.868 112.787 48.1467 113.344 48.704C113.909 49.254 114.191 49.936 114.191 50.75C114.191 51.5567 113.909 52.2423 113.344 52.807ZM109.758 52.301C110.176 52.719 110.689 52.928 111.298 52.928C111.907 52.928 112.42 52.719 112.838 52.301C113.256 51.8683 113.465 51.3513 113.465 50.75C113.465 50.1413 113.256 49.628 112.838 49.21C112.42 48.7847 111.907 48.572 111.298 48.572C110.689 48.572 110.176 48.7847 109.758 49.21C109.34 49.628 109.131 50.1413 109.131 50.75C109.131 51.3513 109.34 51.8683 109.758 52.301ZM119.96 48H120.796V53.5H120.07V49.111L118.145 52.235H118.057L116.132 49.111V53.5H115.406V48H116.242L118.101 51.014L119.96 48ZM122.334 48H126.954V53.5H126.228V48.704H123.06V53.5H122.334V48ZM133.22 49.078V48H133.946V53.5H133.22V52.422C132.714 53.2287 131.973 53.632 130.998 53.632C130.213 53.632 129.542 53.3533 128.985 52.796C128.435 52.2387 128.16 51.5567 128.16 50.75C128.16 49.9433 128.435 49.2613 128.985 48.704C129.542 48.1467 130.213 47.868 130.998 47.868C131.973 47.868 132.714 48.2713 133.22 49.078ZM129.513 52.301C129.931 52.719 130.444 52.928 131.053 52.928C131.661 52.928 132.175 52.719 132.593 52.301C133.011 51.8683 133.22 51.3513 133.22 50.75C133.22 50.1413 133.011 49.628 132.593 49.21C132.175 48.7847 131.661 48.572 131.053 48.572C130.444 48.572 129.931 48.7847 129.513 49.21C129.095 49.628 128.886 50.1413 128.886 50.75C128.886 51.3513 129.095 51.8683 129.513 52.301ZM139.377 50.398V48H140.103V53.5H139.377V51.102H136.209V53.5H135.483V48H136.209V50.398H139.377ZM142.364 52.235L145.642 48H146.258V53.5H145.532V49.265L142.254 53.5H141.638V48H142.364V52.235ZM151.533 47.12H148.673V46.482H151.533V47.12ZM148.519 52.235L151.797 48H152.413V53.5H151.687V49.265L148.409 53.5H147.793V48H148.519V52.235ZM160.406 53.632C159.232 53.632 158.268 53.247 157.513 52.477C156.75 51.6997 156.369 50.7573 156.369 49.65C156.369 48.5427 156.75 47.6003 157.513 46.823C158.268 46.053 159.232 45.668 160.406 45.668C161.11 45.668 161.759 45.8403 162.353 46.185C162.947 46.5223 163.409 46.9807 163.739 47.56L163.057 47.956C162.815 47.4867 162.455 47.1127 161.979 46.834C161.502 46.5553 160.978 46.416 160.406 46.416C159.438 46.416 158.653 46.7277 158.052 47.351C157.443 47.9817 157.139 48.748 157.139 49.65C157.139 50.552 157.443 51.3183 158.052 51.949C158.653 52.5723 159.438 52.884 160.406 52.884C160.978 52.884 161.502 52.7447 161.979 52.466C162.455 52.1873 162.815 51.8133 163.057 51.344L163.739 51.729C163.423 52.3083 162.965 52.7703 162.364 53.115C161.762 53.4597 161.11 53.632 160.406 53.632ZM169.571 49.078V48H170.297V53.5H169.571V52.422C169.065 53.2287 168.325 53.632 167.349 53.632C166.565 53.632 165.894 53.3533 165.336 52.796C164.786 52.2387 164.511 51.5567 164.511 50.75C164.511 49.9433 164.786 49.2613 165.336 48.704C165.894 48.1467 166.565 47.868 167.349 47.868C168.325 47.868 169.065 48.2713 169.571 49.078ZM165.864 52.301C166.282 52.719 166.796 52.928 167.404 52.928C168.013 52.928 168.526 52.719 168.944 52.301C169.362 51.8683 169.571 51.3513 169.571 50.75C169.571 50.1413 169.362 49.628 168.944 49.21C168.526 48.7847 168.013 48.572 167.404 48.572C166.796 48.572 166.282 48.7847 165.864 49.21C165.446 49.628 165.237 50.1413 165.237 50.75C165.237 51.3513 165.446 51.8683 165.864 52.301ZM175.728 50.398V48H176.454V53.5H175.728V51.102H172.56V53.5H171.834V48H172.56V50.398H175.728ZM179.486 50.64L182.434 53.5H181.466L178.716 50.849V53.5H177.99V48H178.716V50.431L181.334 48H182.324L179.486 50.64ZM182.765 48H187.385V48.704H185.438V53.5H184.712V48.704H182.765V48ZM192.007 50.453H188.047V49.749H192.007V50.453ZM193.762 45.8H199.262V53.5H198.492V46.526H194.532V53.5H193.762V45.8ZM203.455 47.868C204.276 47.868 204.932 48.1577 205.424 48.737C205.93 49.309 206.183 49.9873 206.183 50.772C206.183 50.8087 206.175 50.9223 206.161 51.113H201.332C201.405 51.663 201.64 52.103 202.036 52.433C202.432 52.763 202.927 52.928 203.521 52.928C204.357 52.928 204.947 52.6163 205.292 51.993L205.93 52.367C205.688 52.763 205.354 53.0747 204.929 53.302C204.511 53.522 204.038 53.632 203.51 53.632C202.644 53.632 201.94 53.3607 201.398 52.818C200.855 52.2753 200.584 51.586 200.584 50.75C200.584 49.9213 200.851 49.2357 201.387 48.693C201.922 48.143 202.611 47.868 203.455 47.868ZM203.455 48.572C202.883 48.572 202.402 48.7407 202.014 49.078C201.632 49.4153 201.405 49.859 201.332 50.409H205.435C205.354 49.8223 205.13 49.3713 204.764 49.056C204.382 48.7333 203.946 48.572 203.455 48.572ZM206.463 48H211.083V48.704H209.136V53.5H208.41V48.704H206.463V48ZM214.293 47.868C215.115 47.868 215.771 48.1577 216.262 48.737C216.768 49.309 217.021 49.9873 217.021 50.772C217.021 50.8087 217.014 50.9223 216.999 51.113H212.17C212.244 51.663 212.478 52.103 212.874 52.433C213.27 52.763 213.765 52.928 214.359 52.928C215.195 52.928 215.786 52.6163 216.13 51.993L216.768 52.367C216.526 52.763 216.193 53.0747 215.767 53.302C215.349 53.522 214.876 53.632 214.348 53.632C213.483 53.632 212.779 53.3607 212.236 52.818C211.694 52.2753 211.422 51.586 211.422 50.75C211.422 49.9213 211.69 49.2357 212.225 48.693C212.761 48.143 213.45 47.868 214.293 47.868ZM214.293 48.572C213.721 48.572 213.241 48.7407 212.852 49.078C212.471 49.4153 212.244 49.859 212.17 50.409H216.273C216.193 49.8223 215.969 49.3713 215.602 49.056C215.221 48.7333 214.785 48.572 214.293 48.572ZM221.124 47.868C221.909 47.868 222.576 48.1467 223.126 48.704C223.684 49.2613 223.962 49.9433 223.962 50.75C223.962 51.5567 223.684 52.2387 223.126 52.796C222.576 53.3533 221.909 53.632 221.124 53.632C220.149 53.632 219.408 53.2287 218.902 52.422V55.7H218.176V48H218.902V49.078C219.408 48.2713 220.149 47.868 221.124 47.868ZM219.529 52.301C219.947 52.719 220.461 52.928 221.069 52.928C221.678 52.928 222.191 52.719 222.609 52.301C223.027 51.8683 223.236 51.3513 223.236 50.75C223.236 50.1413 223.027 49.628 222.609 49.21C222.191 48.7847 221.678 48.572 221.069 48.572C220.461 48.572 219.947 48.7847 219.529 49.21C219.111 49.628 218.902 50.1413 218.902 50.75C218.902 51.3513 219.111 51.8683 219.529 52.301ZM227.611 53.632C226.827 53.632 226.167 53.3717 225.631 52.851C225.103 52.323 224.839 51.641 224.839 50.805C224.839 49.8663 224.979 49.1477 225.257 48.649C225.536 48.143 226.101 47.6847 226.951 47.274C227.223 47.1493 227.435 47.054 227.589 46.988C227.846 46.8853 228.048 46.7973 228.194 46.724C228.832 46.4307 229.155 46.0677 229.162 45.635L229.734 45.965C229.698 46.1483 229.639 46.3133 229.558 46.46C229.463 46.6213 229.368 46.7497 229.272 46.845C229.184 46.9403 229.045 47.043 228.854 47.153C228.73 47.2263 228.579 47.307 228.403 47.395L227.853 47.626L227.336 47.846C226.83 48.066 226.453 48.297 226.203 48.539C225.961 48.7737 225.789 49.0817 225.686 49.463C225.921 49.1477 226.229 48.9093 226.61 48.748C226.992 48.5793 227.377 48.495 227.765 48.495C228.499 48.495 229.104 48.737 229.58 49.221C230.064 49.6977 230.306 50.31 230.306 51.058C230.306 51.7987 230.05 52.4147 229.536 52.906C229.03 53.39 228.389 53.632 227.611 53.632ZM226.181 52.367C226.563 52.7263 227.039 52.906 227.611 52.906C228.183 52.906 228.653 52.7337 229.019 52.389C229.393 52.037 229.58 51.5933 229.58 51.058C229.58 50.5153 229.404 50.0717 229.052 49.727C228.708 49.375 228.246 49.199 227.666 49.199C227.146 49.199 226.673 49.364 226.247 49.694C225.822 50.0093 225.609 50.442 225.609 50.992C225.609 51.5493 225.8 52.0077 226.181 52.367ZM233.374 52.609L235.156 48H235.926L233.572 54.006C233.352 54.5633 233.044 54.9923 232.648 55.293C232.259 55.601 231.826 55.7367 231.35 55.7V55.018C232.01 55.0987 232.512 54.7173 232.857 53.874L233 53.533L230.536 48H231.306L233.374 52.609ZM239.751 47.868C240.536 47.868 241.203 48.1467 241.753 48.704C242.311 49.2613 242.589 49.9433 242.589 50.75C242.589 51.5567 242.311 52.2387 241.753 52.796C241.203 53.3533 240.536 53.632 239.751 53.632C238.776 53.632 238.035 53.2287 237.529 52.422V55.7H236.803V48H237.529V49.078C238.035 48.2713 238.776 47.868 239.751 47.868ZM238.156 52.301C238.574 52.719 239.088 52.928 239.696 52.928C240.305 52.928 240.818 52.719 241.236 52.301C241.654 51.8683 241.863 51.3513 241.863 50.75C241.863 50.1413 241.654 49.628 241.236 49.21C240.818 48.7847 240.305 48.572 239.696 48.572C239.088 48.572 238.574 48.7847 238.156 49.21C237.738 49.628 237.529 50.1413 237.529 50.75C237.529 51.3513 237.738 51.8683 238.156 52.301ZM243.796 48H247.316V48.704H244.522V53.5H243.796V48ZM252.716 49.078V48H253.442V53.5H252.716V52.422C252.21 53.2287 251.469 53.632 250.494 53.632C249.709 53.632 249.038 53.3533 248.481 52.796C247.931 52.2387 247.656 51.5567 247.656 50.75C247.656 49.9433 247.931 49.2613 248.481 48.704C249.038 48.1467 249.709 47.868 250.494 47.868C251.469 47.868 252.21 48.2713 252.716 49.078ZM249.009 52.301C249.427 52.719 249.94 52.928 250.549 52.928C251.157 52.928 251.671 52.719 252.089 52.301C252.507 51.8683 252.716 51.3513 252.716 50.75C252.716 50.1413 252.507 49.628 252.089 49.21C251.671 48.7847 251.157 48.572 250.549 48.572C249.94 48.572 249.427 48.7847 249.009 49.21C248.591 49.628 248.382 50.1413 248.382 50.75C248.382 51.3513 248.591 51.8683 249.009 52.301Z" fill="#818181"/>
<defs>
<clipPath id="clip0">
<rect width="66.45" height="38.3" fill="white" transform="translate(0.5 0.5)"/>
</clipPath>
</defs>
</svg>
